<svg width="640" height="360" viewBox="0 0 640 360" fill="none" xmlns="http://www.w3.org/2000/svg">
<rect width="640" height="360" fill="#0A0D19"/>
<text fill="#8A8F9C" style="white-space: pre" xml:space="preserve" font-family="IBM Plex Mono" font-size="11" letter-spacing="0.06em"><tspan x="24" y="31.625">G4 &#xb7; MANY TO ONE</tspan></text>
<path d="M208 100C302.667 100 392.667 126.667 478 180" stroke="#8FB0D6" stroke-opacity="0.7" stroke-linecap="round"/>
<circle cx="200" cy="100" r="6.375" fill="#0A0D19" stroke="#8FB0D6" stroke-width="1.25"/>
<text fill="#E8E6DF" style="white-space: pre" xml:space="preserve" font-family="IBM Plex Mono" font-size="13" letter-spacing="0.06em"><tspan x="112.181" y="104.875">BIRTH_YR</tspan></text>
<path d="M208 180C302.667 180 392.667 180 478 180" stroke="#8FB0D6" stroke-opacity="0.7" stroke-linecap="round"/>
<circle cx="200" cy="180" r="6.375" fill="#0A0D19" stroke="#8FB0D6" stroke-width="1.25"/>
<text fill="#E8E6DF" style="white-space: pre" xml:space="preserve" font-family="IBM Plex Mono" font-size="13" letter-spacing="0.06em"><tspan x="155.055" y="184.875">yob</tspan></text>
<path d="M208 260C302.667 260 392.667 233.333 478 180" stroke="#8FB0D6" stroke-opacity="0.7" stroke-linecap="round"/>
<circle cx="200" cy="260" r="6.375" fill="#0A0D19" stroke="#8FB0D6" stroke-width="1.25"/>
<text fill="#E8E6DF" style="white-space: pre" xml:space="preserve" font-family="IBM Plex Mono" font-size="13" letter-spacing="0.06em"><tspan x="95.0308" y="264.875">birth_year</tspan></text>
<path d="M486 180L480 176.4V183.6L486 180Z" fill="#8FB0D6"/>
<circle cx="500" cy="180" r="11.25" fill="#E5A23A" fill-opacity="0.18" stroke="#E5A23A" stroke-width="1.5"/>
<text fill="#E5A23A" style="white-space: pre" xml:space="preserve" font-family="IBM Plex Mono" font-size="13" letter-spacing="0.06em"><tspan x="524" y="184.875">year_of_birth</tspan></text>
<text fill="#8A8F9C" style="white-space: pre" xml:space="preserve" font-family="IBM Plex Mono" font-size="11" letter-spacing="0.06em"><tspan x="86.3359" y="311.625">THREE SOURCES</tspan></text>
<text fill="#8A8F9C" style="white-space: pre" xml:space="preserve" font-family="IBM Plex Mono" font-size="11" letter-spacing="0.06em"><tspan x="478" y="311.625">ONE TARGET PROPERTY</tspan></text>
<text fill="#8A8F9C" style="white-space: pre" xml:space="preserve" font-family="IBM Plex Sans" font-size="12" letter-spacing="0em"><tspan x="24" y="337">Year to year. The figure never implies precision the sources lack.</tspan></text>
</svg>
